<svg width="500" height="500" version="1.1" xmlns="http://www.w3.org/2000/svg" desc="Created with imagetracer.js version 1.2.6" ><path fill="rgb(231,157,130)" stroke="rgb(231,157,130)" stroke-width="1" opacity="0.9803921568627451" d="M 360.5 78 L 364 78.5 L 360.5 79 L 360.5 78 Z " /><path fill="rgb(231,157,130)" stroke="rgb(231,157,130)" stroke-width="1" opacity="0.9803921568627451" d="M 355.5 79 L 357 79.5 L 354.5 81 L 355.5 79 Z " /><path fill="rgb(231,157,130)" stroke="rgb(231,157,130)" stroke-width="1" opacity="0.9803921568627451" d="M 352.5 81 L 349.5 85 L 352.5 81 Z " /><path fill="rgb(231,157,130)" stroke="rgb(231,157,130)" stroke-width="1" opacity="0.9803921568627451" d="M 314.5 93 L 330 93.5 L 314.5 94 L 314.5 93 Z " /><path fill="rgb(231,157,130)" stroke="rgb(231,157,130)" stroke-width="1" opacity="0.9803921568627451" d="M 394.5 93 L 411 93.5 L 394 94 L 393.5 105 L 393 94.5 L 394.5 93 Z " /><path fill="rgb(231,157,130)" stroke="rgb(231,157,130)" stroke-width="1" opacity="0.9803921568627451" d="M 92.5 95 L 91.5 97 L 92.5 95 Z " /><path fill="rgb(231,157,130)" stroke="rgb(231,157,130)" stroke-width="1" opacity="0.9803921568627451" d="M 389.5 96 L 390 102.5 L 389 102.5 L 389.5 96 Z " /><path fill="rgb(231,157,130)" stroke="rgb(231,157,130)" stroke-width="1" opacity="0.9803921568627451" d="M 97.5 97 L 101 99.5 L 102 111.5 L 101 114.5 Q 102.7 119.3 98.5 118 L 96.5 118 Q 93.9 118.8 95 115.5 L 95 113.5 L 95 99.5 L 97.5 97 Z " /><path fill="rgb(231,157,130)" stroke="rgb(231,157,130)" stroke-width="1" opacity="0.9803921568627451" d="M 158.5 97 Q 162.5 96.5 163 99.5 L 163 116.5 L 161.5 118 L 159.5 119 L 156 116.5 L 156 100.5 L 158.5 97 Z " /><path fill="rgb(231,157,130)" stroke="rgb(231,157,130)" stroke-width="1" opacity="0.9803921568627451" d="M 90.5 99 L 91 103.5 L 90 103.5 L 90.5 99 Z " /><path fill="rgb(231,157,130)" stroke="rgb(231,157,130)" stroke-width="1" opacity="0.9803921568627451" d="M 422.5 100 L 423 111.5 L 422 111.5 L 422.5 100 Z " /><path fill="rgb(231,157,130)" stroke="rgb(231,157,130)" stroke-width="1" opacity="0.9803921568627451" d="M 72.5 109 L 90 109 L 90 115.5 L 91 120 Q 94 119 93 122 L 95.5 122 L 99.5 123 L 105 118.5 L 106 109 L 151.5 109 L 152 109.5 L 152 117.5 L 155.5 122 L 161.5 123 L 167 118.5 L 167 109 L 184.5 109 L 192 114.5 Q 189.5 116 193 117.5 L 193 135.5 L 191.5 137 L 65.5 137 L 65 136.5 L 65 115.5 L 67 112 Q 70 113 69 110 L 71.5 110 L 72.5 109 Z " /><path fill="rgb(231,157,130)" stroke="rgb(231,157,130)" stroke-width="1" opacity="0.9803921568627451" d="M 196.5 114 L 197 116.5 L 196 116.5 L 196.5 114 Z " /><path fill="rgb(231,157,130)" stroke="rgb(231,157,130)" stroke-width="1" opacity="0.9803921568627451" d="M 390.5 124 L 389.5 126 L 390.5 124 Z " /><path fill="rgb(231,157,130)" stroke="rgb(231,157,130)" stroke-width="1" opacity="0.9803921568627451" d="M 399.5 124 L 402 125.5 L 403 131.5 L 403 133.5 L 406 164.5 L 402 166 L 403 163.5 L 401 163 L 398 125.5 L 399.5 124 Z " /><path fill="rgb(231,157,130)" stroke="rgb(231,157,130)" stroke-width="1" opacity="0.9803921568627451" d="M 392.5 128 Q 395.3 127.4 394 133.5 L 395 138.5 L 394 140.5 L 396 144.5 L 397 162.5 L 398 163.5 L 396.5 164 L 381.5 157 L 378 157 L 378 138.5 L 379.5 137 L 392.5 128 Z " /><path fill="rgb(231,157,130)" stroke="rgb(231,157,130)" stroke-width="1" opacity="0.9803921568627451" d="M 407.5 134 L 408 138.5 L 407 138.5 L 407.5 134 Z " /><path fill="rgb(231,157,130)" stroke="rgb(231,157,130)" stroke-width="1" opacity="0.9803921568627451" d="M 366.5 137 L 372 137.5 L 366.5 138 L 366.5 137 Z " /><path fill="rgb(231,157,130)" stroke="rgb(231,157,130)" stroke-width="1" opacity="0.9803921568627451" d="M 364.5 138 L 363.5 140 L 364.5 138 Z " /><path fill="rgb(231,157,130)" stroke="rgb(231,157,130)" stroke-width="1" opacity="0.9803921568627451" d="M 361.5 141 L 360.5 143 L 361.5 141 Z " /><path fill="rgb(231,157,130)" stroke="rgb(231,157,130)" stroke-width="1" opacity="0.9803921568627451" d="M 368.5 141 Q 373 140 374 142.5 L 374 157 L 367.5 157 Q 361.9 155.1 363 146.5 L 366.5 142 L 368.5 141 Z " /><path fill="rgb(231,157,130)" stroke="rgb(231,157,130)" stroke-width="1" opacity="0.9803921568627451" d="M 408.5 144 L 409 146.5 L 408 146.5 L 408.5 144 Z " /><path fill="rgb(231,157,130)" stroke="rgb(231,157,130)" stroke-width="1" opacity="0.9803921568627451" d="M 322.5 151 L 322 152.5 L 321.5 154 L 321 152.5 L 322.5 151 Z " /><path fill="rgb(231,157,130)" stroke="rgb(231,157,130)" stroke-width="1" opacity="0.9803921568627451" d="M 87.5 155 L 104 155.5 L 87.5 156 L 87.5 155 Z " /><path fill="rgb(231,157,130)" stroke="rgb(231,157,130)" stroke-width="1" opacity="0.9803921568627451" d="M 121.5 155 L 137 155.5 L 121.5 156 L 121.5 155 Z " /><path fill="rgb(231,157,130)" stroke="rgb(231,157,130)" stroke-width="1" opacity="0.9803921568627451" d="M 360.5 155 L 361.5 157 L 360.5 155 Z " /><path fill="rgb(231,157,130)" stroke="rgb(231,157,130)" stroke-width="1" opacity="0.9803921568627451" d="M 409.5 156 L 410 159.5 L 409 159.5 L 409.5 156 Z " /><path fill="rgb(231,157,130)" stroke="rgb(231,157,130)" stroke-width="1" opacity="0.9803921568627451" d="M 141.5 159 L 142 176.5 L 141 176.5 L 141.5 159 Z " /><path fill="rgb(231,157,130)" stroke="rgb(231,157,130)" stroke-width="1" opacity="0.9803921568627451" d="M 102.5 160 L 104 161.5 L 104 175.5 L 103 175.5 L 103 161.5 L 102.5 160 Z " /><path fill="rgb(231,157,130)" stroke="rgb(231,157,130)" stroke-width="1" opacity="0.9803921568627451" d="M 374 161 L 379 161 L 379 162.5 L 380 163.5 L 381 175.5 L 377.5 177 L 374 167.5 L 374 161 Z " /><path fill="rgb(231,157,130)" stroke="rgb(231,157,130)" stroke-width="1" opacity="0.9803921568627451" d="M 150.5 163 L 151 168.5 L 150 168.5 L 150.5 163 Z " /><path fill="rgb(231,157,130)" stroke="rgb(231,157,130)" stroke-width="1" opacity="0.9803921568627451" d="M 325.5 170 L 335 170.5 L 325.5 171 L 325.5 170 Z " /><path fill="rgb(231,157,130)" stroke="rgb(231,157,130)" stroke-width="1" opacity="0.9803921568627451" d="M 336.5 170 L 344 170.5 L 336.5 171 L 336.5 170 Z " /><path fill="rgb(231,157,130)" stroke="rgb(231,157,130)" stroke-width="1" opacity="0.9803921568627451" d="M 345.5 170 L 352 170.5 L 345.5 171 L 345.5 170 Z " /><path fill="rgb(231,157,130)" stroke="rgb(231,157,130)" stroke-width="1" opacity="0.9803921568627451" d="M 353.5 170 L 356 170.5 L 353.5 171 L 353.5 170 Z " /><path fill="rgb(231,157,130)" stroke="rgb(231,157,130)" stroke-width="1" opacity="0.9803921568627451" d="M 357.5 170 L 358.5 172 L 357.5 170 Z " /><path fill="rgb(231,157,130)" stroke="rgb(231,157,130)" stroke-width="1" opacity="0.9803921568627451" d="M 401.5 170 L 405 170.5 L 401.5 171 L 401.5 170 Z " /><path fill="rgb(231,157,130)" stroke="rgb(231,157,130)" stroke-width="1" opacity="0.9803921568627451" d="M 385.5 172 L 386 175.5 L 385 175.5 L 385.5 172 Z " /><path fill="rgb(231,157,130)" stroke="rgb(231,157,130)" stroke-width="1" opacity="0.9803921568627451" d="M 192.5 173 L 193 176.5 L 192 176.5 L 192.5 173 Z " /><path fill="rgb(231,157,130)" stroke="rgb(231,157,130)" stroke-width="1" opacity="0.9803921568627451" d="M 323.5 174 L 332 174.5 L 323.5 175 L 323.5 174 Z " /><path fill="rgb(231,157,130)" stroke="rgb(231,157,130)" stroke-width="1" opacity="0.9803921568627451" d="M 333.5 174 L 340 174.5 L 333.5 175 L 333.5 174 Z " /><path fill="rgb(231,157,130)" stroke="rgb(231,157,130)" stroke-width="1" opacity="0.9803921568627451" d="M 344.5 174 L 353 174.5 L 344.5 175 L 344.5 174 Z " /><path fill="rgb(231,157,130)" stroke="rgb(231,157,130)" stroke-width="1" opacity="0.9803921568627451" d="M 174.5 178 L 172.5 181 L 174.5 178 Z " /><path fill="rgb(231,157,130)" stroke="rgb(231,157,130)" stroke-width="1" opacity="0.9803921568627451" d="M 85.5 190 L 105 190.5 L 85.5 191 L 83.5 193 L 85.5 190 Z " /><path fill="rgb(231,157,130)" stroke="rgb(231,157,130)" stroke-width="1" opacity="0.9803921568627451" d="M 120.5 190 L 139 190.5 L 120.5 191 L 120.5 190 Z " /><path fill="rgb(231,157,130)" stroke="rgb(231,157,130)" stroke-width="1" opacity="0.9803921568627451" d="M 153.5 190 L 169 190.5 L 153.5 191 L 151.5 193 L 153.5 190 Z " /><path fill="rgb(231,157,130)" stroke="rgb(231,157,130)" stroke-width="1" opacity="0.9803921568627451" d="M 422.5 191 L 423 193.5 L 422 193.5 L 422.5 191 Z " /><path fill="rgb(231,157,130)" stroke="rgb(231,157,130)" stroke-width="1" opacity="0.9803921568627451" d="M 87.5 194 L 102.5 194 L 104 195.5 L 104 210.5 L 102.5 212 L 87 211.5 L 103 211 L 103 195 L 87.5 195 L 87.5 194 Z " /><path fill="rgb(231,157,130)" stroke="rgb(231,157,130)" stroke-width="1" opacity="0.9803921568627451" d="M 141.5 194 L 142 211.5 L 141 211.5 L 141.5 194 Z " /><path fill="rgb(231,157,130)" stroke="rgb(231,157,130)" stroke-width="1" opacity="0.9803921568627451" d="M 251.5 194 L 255.5 196 Q 267.9 198.6 277 204.5 L 275.5 207 L 251 216 L 251.5 194 Z " /><path fill="rgb(231,157,130)" stroke="rgb(231,157,130)" stroke-width="1" opacity="0.9803921568627451" d="M 321.5 194 L 323 196.5 L 321 195.5 L 321.5 194 Z " /><path fill="rgb(231,157,130)" stroke="rgb(231,157,130)" stroke-width="1" opacity="0.9803921568627451" d="M 422.5 195 L 423 197.5 L 422 197.5 L 422.5 195 Z " /><path fill="rgb(231,157,130)" stroke="rgb(231,157,130)" stroke-width="1" opacity="0.9803921568627451" d="M 150.5 198 L 151 209.5 L 150 209.5 L 150.5 198 Z " /><path fill="rgb(231,157,130)" stroke="rgb(231,157,130)" stroke-width="1" opacity="0.9803921568627451" d="M 422.5 199 L 423 204.5 L 422 204.5 L 422.5 199 Z " /><path fill="rgb(231,157,130)" stroke="rgb(231,157,130)" stroke-width="1" opacity="0.9803921568627451" d="M 116.5 201 L 117 203.5 L 116 203.5 L 116.5 201 Z " /><path fill="rgb(231,157,130)" stroke="rgb(231,157,130)" stroke-width="1" opacity="0.9803921568627451" d="M 422.5 206 L 423 209.5 L 422 209.5 L 422.5 206 Z " /><path fill="rgb(231,157,130)" stroke="rgb(231,157,130)" stroke-width="1" opacity="0.9803921568627451" d="M 422.5 211 L 423 217.5 L 422 217.5 L 422.5 211 Z " /><path fill="rgb(231,157,130)" stroke="rgb(231,157,130)" stroke-width="1" opacity="0.9803921568627451" d="M 140.5 213 L 139.5 215 L 140.5 213 Z " /><path fill="rgb(231,157,130)" stroke="rgb(231,157,130)" stroke-width="1" opacity="0.9803921568627451" d="M 151.5 213 L 155 215.5 L 153.5 216 L 151.5 213 Z " /><path fill="rgb(231,157,130)" stroke="rgb(231,157,130)" stroke-width="1" opacity="0.9803921568627451" d="M 192.5 217 L 193 220.5 L 192 220.5 L 192.5 217 Z " /><path fill="rgb(231,157,130)" stroke="rgb(231,157,130)" stroke-width="1" opacity="0.9803921568627451" d="M 196.5 219 L 197 221.5 L 196 221.5 L 196.5 219 Z " /><path fill="rgb(231,157,130)" stroke="rgb(231,157,130)" stroke-width="1" opacity="0.9803921568627451" d="M 308.5 222 L 309.5 224 L 308.5 222 Z " /><path fill="rgb(231,157,130)" stroke="rgb(231,157,130)" stroke-width="1" opacity="0.9803921568627451" d="M 243.5 227 L 241.5 230 L 243.5 227 Z " /><path fill="rgb(231,157,130)" stroke="rgb(231,157,130)" stroke-width="1" opacity="0.9803921568627451" d="M 254.5 227 L 255.5 229 L 254.5 227 Z " /><path fill="rgb(231,157,130)" stroke="rgb(231,157,130)" stroke-width="1" opacity="0.9803921568627451" d="M 74.5 229 L 184 229.5 L 74.5 230 L 74.5 229 Z " /><path fill="rgb(231,157,130)" stroke="rgb(231,157,130)" stroke-width="1" opacity="0.9803921568627451" d="M 314.5 230 L 410 230.5 L 314.5 231 L 314.5 230 Z " /><path fill="rgb(231,157,130)" stroke="rgb(231,157,130)" stroke-width="1" opacity="0.9803921568627451" d="M 243.5 233 L 242.5 235 L 243.5 233 Z " /><path fill="rgb(231,157,130)" stroke="rgb(231,157,130)" stroke-width="1" opacity="0.9803921568627451" d="M 229.5 239 L 228.5 241 L 229.5 239 Z " /><path fill="rgb(231,157,130)" stroke="rgb(231,157,130)" stroke-width="1" opacity="0.9803921568627451" d="M 266.5 243 L 267.5 245 L 266.5 243 Z " /><path fill="rgb(231,157,130)" stroke="rgb(231,157,130)" stroke-width="1" opacity="0.9803921568627451" d="M 279.5 248 L 280.5 250 L 279.5 248 Z " /><path fill="rgb(231,157,130)" stroke="rgb(231,157,130)" stroke-width="1" opacity="0.9803921568627451" d="M 212.5 253 L 211.5 255 L 212.5 253 Z " /><path fill="rgb(231,157,130)" stroke="rgb(231,157,130)" stroke-width="1" opacity="0.9803921568627451" d="M 278.5 253 L 279.5 255 L 278.5 253 Z " /><path fill="rgb(231,157,130)" stroke="rgb(231,157,130)" stroke-width="1" opacity="0.9803921568627451" d="M 255.5 257 L 256.5 259 L 255.5 257 Z " /><path fill="rgb(231,157,130)" stroke="rgb(231,157,130)" stroke-width="1" opacity="0.9803921568627451" d="M 235.5 263 L 234.5 265 L 235.5 263 Z " /><path fill="rgb(231,157,130)" stroke="rgb(231,157,130)" stroke-width="1" opacity="0.9803921568627451" d="M 262.5 263 L 263.5 265 L 262.5 263 Z " /><path fill="rgb(231,157,130)" stroke="rgb(231,157,130)" stroke-width="1" opacity="0.9803921568627451" d="M 266.5 266 L 268.5 269 L 266.5 266 Z " /><path fill="rgb(231,157,130)" stroke="rgb(231,157,130)" stroke-width="1" opacity="0.9803921568627451" d="M 229.5 268 L 227.5 271 L 229.5 268 Z " /><path fill="rgb(231,157,130)" stroke="rgb(231,157,130)" stroke-width="1" opacity="0.9803921568627451" d="M 224.5 272 L 223.5 274 L 224.5 272 Z " /><path fill="rgb(231,157,130)" stroke="rgb(231,157,130)" stroke-width="1" opacity="0.9803921568627451" d="M 168.5 274 L 221 274.5 L 168.5 275 L 168.5 274 Z " /><path fill="rgb(231,157,130)" stroke="rgb(231,157,130)" stroke-width="1" opacity="0.9803921568627451" d="M 277.5 274 L 330 274.5 L 277.5 275 L 277.5 274 Z " /><path fill="rgb(231,157,130)" stroke="rgb(231,157,130)" stroke-width="1" opacity="0.9803921568627451" d="M 262.5 285 L 263 287.5 L 262 287.5 L 262.5 285 Z " /><path fill="rgb(231,157,130)" stroke="rgb(231,157,130)" stroke-width="1" opacity="0.9803921568627451" d="M 262.5 289 L 263 291.5 L 262 291.5 L 262.5 289 Z " /><path fill="rgb(231,157,130)" stroke="rgb(231,157,130)" stroke-width="1" opacity="0.9803921568627451" d="M 237.5 296 L 240.5 300 L 237.5 296 Z " /><path fill="rgb(231,157,130)" stroke="rgb(231,157,130)" stroke-width="1" opacity="0.9803921568627451" d="M 260.5 296 L 257.5 300 L 260.5 296 Z " /><path fill="rgb(231,157,130)" stroke="rgb(231,157,130)" stroke-width="1" opacity="0.9803921568627451" d="M 289.5 297 L 289 298.5 L 288.5 300 L 288 298.5 L 289.5 297 Z " /><path fill="rgb(231,157,130)" stroke="rgb(231,157,130)" stroke-width="1" opacity="0.9803921568627451" d="M 205.5 305 L 206 314.5 L 205 314.5 L 205.5 305 Z " /><path fill="rgb(231,157,130)" stroke="rgb(231,157,130)" stroke-width="1" opacity="0.9803921568627451" d="M 189.5 307 L 190 311.5 L 189 311.5 L 189.5 307 Z " /><path fill="rgb(231,157,130)" stroke="rgb(231,157,130)" stroke-width="1" opacity="0.9803921568627451" d="M 189.5 314 L 190 317.5 L 189 317.5 L 189.5 314 Z " /><path fill="rgb(231,157,130)" stroke="rgb(231,157,130)" stroke-width="1" opacity="0.9803921568627451" d="M 247.5 317 L 252 317.5 L 247.5 318 L 247.5 317 Z " /><path fill="rgb(231,157,130)" stroke="rgb(231,157,130)" stroke-width="1" opacity="0.9803921568627451" d="M 258.5 319 L 259.5 321 L 258.5 319 Z " /><path fill="rgb(231,157,130)" stroke="rgb(231,157,130)" stroke-width="1" opacity="0.9803921568627451" d="M 290.5 321 L 291.5 323 L 290.5 321 Z " /><path fill="rgb(231,157,130)" stroke="rgb(231,157,130)" stroke-width="1" opacity="0.9803921568627451" d="M 238.5 325 L 235.5 329 L 238.5 325 Z " /><path fill="rgb(231,157,130)" stroke="rgb(231,157,130)" stroke-width="1" opacity="0.9803921568627451" d="M 259.5 325 L 262.5 329 L 259.5 325 Z " /><path fill="rgb(231,157,130)" stroke="rgb(231,157,130)" stroke-width="1" opacity="0.9803921568627451" d="M 189.5 337 L 206 337.5 L 189.5 338 L 189.5 337 Z " /><path fill="rgb(231,157,130)" stroke="rgb(231,157,130)" stroke-width="1" opacity="0.9803921568627451" d="M 270.5 337 L 271 375.5 L 270 375.5 L 270.5 337 Z " /><path fill="rgb(231,157,130)" stroke="rgb(231,157,130)" stroke-width="1" opacity="0.9803921568627451" d="M 189.5 342 L 190 354.5 L 189 354.5 L 189.5 342 Z " /><path fill="rgb(231,157,130)" stroke="rgb(231,157,130)" stroke-width="1" opacity="0.9803921568627451" d="M 227.5 344 L 228 375.5 L 227 375.5 L 227.5 344 Z " /><path fill="rgb(231,157,130)" stroke="rgb(231,157,130)" stroke-width="1" opacity="0.9803921568627451" d="M 189.5 357 L 190 359.5 L 189 359.5 L 189.5 357 Z " /><path fill="rgb(231,157,130)" stroke="rgb(231,157,130)" stroke-width="1" opacity="0.9803921568627451" d="M 295.5 360 L 307 360.5 L 295.5 361 L 295.5 360 Z " /><path fill="rgb(231,157,130)" stroke="rgb(231,157,130)" stroke-width="1" opacity="0.9803921568627451" d="M 189.5 364 L 206 364.5 L 189.5 365 L 189.5 364 Z " /><path fill="rgb(231,157,130)" stroke="rgb(231,157,130)" stroke-width="1" opacity="0.9803921568627451" d="M 291.5 364 L 299 364.5 L 291.5 365 L 291.5 364 Z " /><path fill="rgb(231,157,130)" stroke="rgb(231,157,130)" stroke-width="1" opacity="0.9803921568627451" d="M 303.5 364 L 306 364.5 L 303.5 365 L 303.5 364 Z " /><path fill="rgb(231,157,130)" stroke="rgb(231,157,130)" stroke-width="1" opacity="0.9803921568627451" d="M 307.5 364 L 310 364.5 L 307.5 365 L 307.5 364 Z " /><path fill="rgb(0,0,0)" stroke="rgb(0,0,0)" stroke-width="1" opacity="0" d="M 0 0 L 500 0 L 500 500 L 0 500 L 0 0 Z M 361 73 Q 359 75 355 74 L 349 78 L 343 86 L 343 89 L 312 89 L 308 91 L 302 99 L 302 222 L 306 228 L 314 231 L 411 231 L 417 228 Q 419 229 418 226 L 420 226 L 423 219 L 423 101 L 420 95 Q 421 92 418 93 L 418 91 L 414 89 L 381 89 L 379 83 Q 374 74 361 73 Z M 95 93 L 91 95 Q 89 98 90 104 L 72 104 L 68 106 Q 61 109 60 117 L 60 220 L 63 228 L 72 234 L 187 234 L 190 232 Q 192 233 191 230 L 193 230 L 197 223 L 197 115 L 196 112 L 187 104 L 168 104 L 167 97 Q 165 91 156 93 L 151 99 Q 152 104 151 104 L 107 104 L 105 95 L 102 93 L 95 93 Z M 249 190 L 246 193 L 246 225 L 244 227 Q 241 226 242 229 L 237 233 Q 234 232 235 235 L 231 238 Q 228 237 229 240 L 224 243 L 222 246 L 192 270 L 165 270 L 162 274 L 162 378 L 163 380 L 165 381 L 334 381 L 336 377 L 336 292 L 335 291 L 336 289 L 335 288 L 335 273 L 334 270 L 307 270 L 305 269 L 258 229 Q 255 230 256 227 L 254 227 L 254 225 L 252 225 L 252 223 L 279 211 L 282 208 L 281 202 L 273 196 Q 263 194 257 190 L 249 190 Z " /><path fill="rgb(250,235,203)" stroke="rgb(250,235,203)" stroke-width="1" opacity="0.9686274509803922" d="M 354.5 74 L 357 74.5 L 354.5 75 L 354.5 74 Z " /><path fill="rgb(250,235,203)" stroke="rgb(250,235,203)" stroke-width="1" opacity="0.9686274509803922" d="M 348.5 78 L 347.5 80 L 348.5 78 Z " /><path fill="rgb(250,235,203)" stroke="rgb(250,235,203)" stroke-width="1" opacity="0.9686274509803922" d="M 307.5 91 L 304.5 95 L 307.5 91 Z " /><path fill="rgb(250,235,203)" stroke="rgb(250,235,203)" stroke-width="1" opacity="0.9686274509803922" d="M 155.5 93 L 154.5 95 L 155.5 93 Z " /><path fill="rgb(250,235,203)" stroke="rgb(250,235,203)" stroke-width="1" opacity="0.9686274509803922" d="M 152.5 97 L 152 98.5 L 151.5 100 L 151 98.5 L 152.5 97 Z " /><path fill="rgb(250,235,203)" stroke="rgb(250,235,203)" stroke-width="1" opacity="0.9686274509803922" d="M 106.5 101 L 107 103.5 L 106 103.5 L 106.5 101 Z " /><path fill="rgb(250,235,203)" stroke="rgb(250,235,203)" stroke-width="1" opacity="0.9686274509803922" d="M 184.5 104 L 187 104.5 L 184.5 105 L 184.5 104 Z " /><path fill="rgb(250,235,203)" stroke="rgb(250,235,203)" stroke-width="1" opacity="0.9686274509803922" d="M 190.5 106 L 191.5 108 L 190.5 106 Z " /><path fill="rgb(250,235,203)" stroke="rgb(250,235,203)" stroke-width="1" opacity="0.9686274509803922" d="M 62.5 111 L 62 112.5 L 61.5 114 L 61 112.5 L 62.5 111 Z " /><path fill="rgb(250,235,203)" stroke="rgb(250,235,203)" stroke-width="1" opacity="0.9686274509803922" d="M 272.5 196 L 275 197.5 L 273.5 198 L 272.5 196 Z " /><path fill="rgb(250,235,203)" stroke="rgb(250,235,203)" stroke-width="1" opacity="0.9686274509803922" d="M 246.5 198 L 247 202.5 L 246 202.5 L 246.5 198 Z " /><path fill="rgb(250,235,203)" stroke="rgb(250,235,203)" stroke-width="1" opacity="0.9686274509803922" d="M 246.5 204 L 247 206.5 L 246 206.5 L 246.5 204 Z " /><path fill="rgb(250,235,203)" stroke="rgb(250,235,203)" stroke-width="1" opacity="0.9686274509803922" d="M 246.5 208 L 247 210.5 L 246 210.5 L 246.5 208 Z " /><path fill="rgb(250,235,203)" stroke="rgb(250,235,203)" stroke-width="1" opacity="0.9686274509803922" d="M 246.5 213 L 247 222.5 L 246 222.5 L 246.5 213 Z " /><path fill="rgb(250,235,203)" stroke="rgb(250,235,203)" stroke-width="1" opacity="0.9686274509803922" d="M 246.5 224 L 244.5 227 L 246.5 224 Z " /><path fill="rgb(250,235,203)" stroke="rgb(250,235,203)" stroke-width="1" opacity="0.9686274509803922" d="M 240.5 229 L 238.5 232 L 240.5 229 Z " /><path fill="rgb(250,235,203)" stroke="rgb(250,235,203)" stroke-width="1" opacity="0.9686274509803922" d="M 257.5 229 L 258.5 231 L 257.5 229 Z " /><path fill="rgb(250,235,203)" stroke="rgb(250,235,203)" stroke-width="1" opacity="0.9686274509803922" d="M 66.5 230 L 67.5 232 L 66.5 230 Z " /><path fill="rgb(250,235,203)" stroke="rgb(250,235,203)" stroke-width="1" opacity="0.9686274509803922" d="M 262.5 233 L 263.5 235 L 262.5 233 Z " /><path fill="rgb(250,235,203)" stroke="rgb(250,235,203)" stroke-width="1" opacity="0.9686274509803922" d="M 233.5 235 L 232.5 237 L 233.5 235 Z " /><path fill="rgb(250,235,203)" stroke="rgb(250,235,203)" stroke-width="1" opacity="0.9686274509803922" d="M 227.5 240 L 225.5 243 L 227.5 240 Z " /><path fill="rgb(250,235,203)" stroke="rgb(250,235,203)" stroke-width="1" opacity="0.9686274509803922" d="M 223.5 243 L 222.5 245 L 223.5 243 Z " /><path fill="rgb(250,235,203)" stroke="rgb(250,235,203)" stroke-width="1" opacity="0.9686274509803922" d="M 274.5 243 L 276.5 246 L 274.5 243 Z " /><path fill="rgb(250,235,203)" stroke="rgb(250,235,203)" stroke-width="1" opacity="0.9686274509803922" d="M 215.5 250 L 213.5 253 L 215.5 250 Z " /><path fill="rgb(250,235,203)" stroke="rgb(250,235,203)" stroke-width="1" opacity="0.9686274509803922" d="M 282.5 250 L 283.5 252 L 282.5 250 Z " /><path fill="rgb(250,235,203)" stroke="rgb(250,235,203)" stroke-width="1" opacity="0.9686274509803922" d="M 286.5 253 L 288.5 256 L 286.5 253 Z " /><path fill="rgb(250,235,203)" stroke="rgb(250,235,203)" stroke-width="1" opacity="0.9686274509803922" d="M 210.5 254 L 209.5 256 L 210.5 254 Z " /><path fill="rgb(250,235,203)" stroke="rgb(250,235,203)" stroke-width="1" opacity="0.9686274509803922" d="M 294.5 260 L 296.5 263 L 294.5 260 Z " /><path fill="rgb(250,235,203)" stroke="rgb(250,235,203)" stroke-width="1" opacity="0.9686274509803922" d="M 202.5 261 L 201.5 263 L 202.5 261 Z " /><path fill="rgb(250,235,203)" stroke="rgb(250,235,203)" stroke-width="1" opacity="0.9686274509803922" d="M 198.5 264 L 195.5 268 L 198.5 264 Z " /><path fill="rgb(250,235,203)" stroke="rgb(250,235,203)" stroke-width="1" opacity="0.9686274509803922" d="M 299.5 264 L 302.5 268 L 299.5 264 Z " /><path fill="rgb(250,235,203)" stroke="rgb(250,235,203)" stroke-width="1" opacity="0.9686274509803922" d="M 162.5 273 L 163 276.5 L 162 276.5 L 162.5 273 Z " /><path fill="rgb(250,235,203)" stroke="rgb(250,235,203)" stroke-width="1" opacity="0.9686274509803922" d="M 162.5 278 L 163 377.5 L 162 377.5 L 162.5 278 Z " /><path fill="rgb(244,213,155)" stroke="rgb(244,213,155)" stroke-width="1" opacity="0.9921568627450981" d="M 357.5 79 Q 370.1 77.4 374 84.5 L 377 94 L 387.5 94 L 388 95.5 L 389 96.5 L 389 104.5 L 386.5 107 L 337.5 107 L 335 106 L 334 95.5 L 336.5 94 L 338.5 94 L 346.5 94 L 348 92.5 L 347 89.5 L 353.5 81 L 357.5 79 Z " /><path fill="rgb(244,213,155)" stroke="rgb(244,213,155)" stroke-width="1" opacity="0.9921568627450981" d="M 329.5 95 L 330 103.5 L 329 103.5 L 329.5 95 Z " /><path fill="rgb(244,213,155)" stroke="rgb(244,213,155)" stroke-width="1" opacity="0.9921568627450981" d="M 306.5 101 L 307 217.5 L 306 217.5 L 306.5 101 Z " /><path fill="rgb(244,213,155)" stroke="rgb(244,213,155)" stroke-width="1" opacity="0.9921568627450981" d="M 393.5 105 L 394 106.5 L 392 107.5 L 393.5 105 Z " /><path fill="rgb(244,213,155)" stroke="rgb(244,213,155)" stroke-width="1" opacity="0.9921568627450981" d="M 331.5 108 L 333.5 111 L 331.5 108 Z " /><path fill="rgb(244,213,155)" stroke="rgb(244,213,155)" stroke-width="1" opacity="0.9921568627450981" d="M 404.5 121 L 405.5 123 L 404.5 121 Z " /><path fill="rgb(244,213,155)" stroke="rgb(244,213,155)" stroke-width="1" opacity="0.9921568627450981" d="M 384.5 128 L 383.5 130 L 384.5 128 Z " /><path fill="rgb(244,213,155)" stroke="rgb(244,213,155)" stroke-width="1" opacity="0.9921568627450981" d="M 407.5 130 L 408 133.5 L 407 133.5 L 407.5 130 Z " /><path fill="rgb(244,213,155)" stroke="rgb(244,213,155)" stroke-width="1" opacity="0.9921568627450981" d="M 327.5 131 L 331 131.5 L 327.5 132 L 327.5 131 Z " /><path fill="rgb(244,213,155)" stroke="rgb(244,213,155)" stroke-width="1" opacity="0.9921568627450981" d="M 333.5 131 L 344 131.5 L 333.5 132 L 333.5 131 Z " /><path fill="rgb(244,213,155)" stroke="rgb(244,213,155)" stroke-width="1" opacity="0.9921568627450981" d="M 345.5 131 L 348 131.5 L 345.5 132 L 345.5 131 Z " /><path fill="rgb(244,213,155)" stroke="rgb(244,213,155)" stroke-width="1" opacity="0.9921568627450981" d="M 352.5 131 L 356 131.5 L 352.5 132 L 352.5 131 Z " /><path fill="rgb(244,213,155)" stroke="rgb(244,213,155)" stroke-width="1" opacity="0.9921568627450981" d="M 378.5 132 L 377.5 134 L 378.5 132 Z " /><path fill="rgb(244,213,155)" stroke="rgb(244,213,155)" stroke-width="1" opacity="0.9921568627450981" d="M 65.5 141 L 191.5 141 L 193 142.5 L 192.5 144 L 192 142 L 65.5 142 L 65.5 141 Z " /><path fill="rgb(244,213,155)" stroke="rgb(244,213,155)" stroke-width="1" opacity="0.9921568627450981" d="M 358.5 146 L 359 150.5 L 358 150.5 L 358.5 146 Z " /><path fill="rgb(244,213,155)" stroke="rgb(244,213,155)" stroke-width="1" opacity="0.9921568627450981" d="M 192.5 148 L 193 172.5 L 192 172.5 L 192.5 148 Z " /><path fill="rgb(244,213,155)" stroke="rgb(244,213,155)" stroke-width="1" opacity="0.9921568627450981" d="M 409.5 151 L 410 155.5 L 409 155.5 L 409.5 151 Z " /><path fill="rgb(244,213,155)" stroke="rgb(244,213,155)" stroke-width="1" opacity="0.9921568627450981" d="M 154.5 155 L 172 155.5 L 154.5 156 L 154.5 155 Z " /><path fill="rgb(244,213,155)" stroke="rgb(244,213,155)" stroke-width="1" opacity="0.9921568627450981" d="M 323.5 155 L 350 155.5 L 323.5 156 L 323.5 155 Z " /><path fill="rgb(244,213,155)" stroke="rgb(244,213,155)" stroke-width="1" opacity="0.9921568627450981" d="M 84.5 156 L 83.5 158 L 84.5 156 Z " /><path fill="rgb(244,213,155)" stroke="rgb(244,213,155)" stroke-width="1" opacity="0.9921568627450981" d="M 139.5 156 L 141.5 159 L 139.5 156 Z " /><path fill="rgb(244,213,155)" stroke="rgb(244,213,155)" stroke-width="1" opacity="0.9921568627450981" d="M 82.5 159 L 83 177.5 L 82 177.5 L 82.5 159 Z " /><path fill="rgb(244,213,155)" stroke="rgb(244,213,155)" stroke-width="1" opacity="0.9921568627450981" d="M 87 160 L 101.5 160 L 103 161.5 L 103 176.5 L 100.5 177 L 98.5 177 L 88.5 177 L 87 175.5 L 87 160 Z " /><path fill="rgb(244,213,155)" stroke="rgb(244,213,155)" stroke-width="1" opacity="0.9921568627450981" d="M 116.5 160 L 117 162.5 L 116 162.5 L 116.5 160 Z " /><path fill="rgb(244,213,155)" stroke="rgb(244,213,155)" stroke-width="1" opacity="0.9921568627450981" d="M 150.5 160 L 151 162.5 L 150 162.5 L 150.5 160 Z " /><path fill="rgb(244,213,155)" stroke="rgb(244,213,155)" stroke-width="1" opacity="0.9921568627450981" d="M 368.5 161 L 370 163.5 L 369 163.5 L 368.5 161 Z " /><path fill="rgb(244,213,155)" stroke="rgb(244,213,155)" stroke-width="1" opacity="0.9921568627450981" d="M 116.5 164 L 117 173.5 L 116 173.5 L 116.5 164 Z " /><path fill="rgb(244,213,155)" stroke="rgb(244,213,155)" stroke-width="1" opacity="0.9921568627450981" d="M 409.5 166 L 410 167.5 L 407 169.5 L 409.5 166 Z " /><path fill="rgb(244,213,155)" stroke="rgb(244,213,155)" stroke-width="1" opacity="0.9921568627450981" d="M 322.5 170 L 322 171.5 L 323 174.5 L 321 173.5 L 322.5 170 Z " /><path fill="rgb(244,213,155)" stroke="rgb(244,213,155)" stroke-width="1" opacity="0.9921568627450981" d="M 371.5 173 L 372 175.5 L 371 175.5 L 371.5 173 Z " /><path fill="rgb(244,213,155)" stroke="rgb(244,213,155)" stroke-width="1" opacity="0.9921568627450981" d="M 192.5 177 L 193 200.5 L 192 200.5 L 192.5 177 Z " /><path fill="rgb(244,213,155)" stroke="rgb(244,213,155)" stroke-width="1" opacity="0.9921568627450981" d="M 107.5 178 L 105.5 181 L 107.5 178 Z " /><path fill="rgb(244,213,155)" stroke="rgb(244,213,155)" stroke-width="1" opacity="0.9921568627450981" d="M 372.5 178 L 374.5 181 L 372.5 178 Z " /><path fill="rgb(244,213,155)" stroke="rgb(244,213,155)" stroke-width="1" opacity="0.9921568627450981" d="M 383.5 179 L 382.5 181 L 383.5 179 Z " /><path fill="rgb(244,213,155)" stroke="rgb(244,213,155)" stroke-width="1" opacity="0.9921568627450981" d="M 105.5 190 L 106.5 192 L 105.5 190 Z " /><path fill="rgb(244,213,155)" stroke="rgb(244,213,155)" stroke-width="1" opacity="0.9921568627450981" d="M 172.5 190 L 173.5 192 L 172.5 190 Z " /><path fill="rgb(244,213,155)" stroke="rgb(244,213,155)" stroke-width="1" opacity="0.9921568627450981" d="M 323.5 192 L 367.5 192 L 369 193.5 L 367.5 193 L 323.5 193 L 323.5 192 Z " /><path fill="rgb(244,213,155)" stroke="rgb(244,213,155)" stroke-width="1" opacity="0.9921568627450981" d="M 82.5 194 L 83 211.5 L 82 211.5 L 82.5 194 Z " /><path fill="rgb(244,213,155)" stroke="rgb(244,213,155)" stroke-width="1" opacity="0.9921568627450981" d="M 116.5 194 L 117 200.5 L 116 200.5 L 116.5 194 Z " /><path fill="rgb(244,213,155)" stroke="rgb(244,213,155)" stroke-width="1" opacity="0.9921568627450981" d="M 150.5 194 L 151 197.5 L 150 197.5 L 150.5 194 Z " /><path fill="rgb(244,213,155)" stroke="rgb(244,213,155)" stroke-width="1" opacity="0.9921568627450981" d="M 87 195 L 97.5 195 L 98.5 196 L 100.5 196 L 102.5 195 L 103 211 L 87 211 L 87 195 Z " /><path fill="rgb(244,213,155)" stroke="rgb(244,213,155)" stroke-width="1" opacity="0.9921568627450981" d="M 329.5 197 L 332 197.5 L 329.5 198 L 329.5 197 Z " /><path fill="rgb(244,213,155)" stroke="rgb(244,213,155)" stroke-width="1" opacity="0.9921568627450981" d="M 333.5 197 L 366 197.5 L 333.5 198 L 333.5 197 Z " /><path fill="rgb(244,213,155)" stroke="rgb(244,213,155)" stroke-width="1" opacity="0.9921568627450981" d="M 192.5 202 L 193 210.5 L 192 210.5 L 192.5 202 Z " /><path fill="rgb(244,213,155)" stroke="rgb(244,213,155)" stroke-width="1" opacity="0.9921568627450981" d="M 116.5 204 L 117 206.5 L 116 206.5 L 116.5 204 Z " /><path fill="rgb(244,213,155)" stroke="rgb(244,213,155)" stroke-width="1" opacity="0.9921568627450981" d="M 174.5 213 L 172.5 216 L 174.5 213 Z " /><path fill="rgb(244,213,155)" stroke="rgb(244,213,155)" stroke-width="1" opacity="0.9921568627450981" d="M 84.5 214 L 85.5 216 L 84.5 214 Z " /><path fill="rgb(244,213,155)" stroke="rgb(244,213,155)" stroke-width="1" opacity="0.9921568627450981" d="M 415.5 222 L 413.5 225 L 415.5 222 Z " /><path fill="rgb(244,213,155)" stroke="rgb(244,213,155)" stroke-width="1" opacity="0.9921568627450981" d="M 189.5 225 L 188.5 227 L 189.5 225 Z " /><path fill="rgb(244,213,155)" stroke="rgb(244,213,155)" stroke-width="1" opacity="0.9921568627450981" d="M 245.5 255 L 244.5 257 L 245.5 255 Z " /><path fill="rgb(244,213,155)" stroke="rgb(244,213,155)" stroke-width="1" opacity="0.9921568627450981" d="M 252.5 255 L 253.5 257 L 252.5 255 Z " /><path fill="rgb(244,213,155)" stroke="rgb(244,213,155)" stroke-width="1" opacity="0.9921568627450981" d="M 240.5 259 L 239.5 261 L 240.5 259 Z " /><path fill="rgb(244,213,155)" stroke="rgb(244,213,155)" stroke-width="1" opacity="0.9921568627450981" d="M 257.5 259 L 258.5 261 L 257.5 259 Z " /><path fill="rgb(244,213,155)" stroke="rgb(244,213,155)" stroke-width="1" opacity="0.9921568627450981" d="M 233.5 265 L 232.5 267 L 233.5 265 Z " /><path fill="rgb(244,213,155)" stroke="rgb(244,213,155)" stroke-width="1" opacity="0.9921568627450981" d="M 264.5 265 L 265.5 267 L 264.5 265 Z " /><path fill="rgb(244,213,155)" stroke="rgb(244,213,155)" stroke-width="1" opacity="0.9921568627450981" d="M 269.5 269 L 270.5 271 L 269.5 269 Z " /><path fill="rgb(244,213,155)" stroke="rgb(244,213,155)" stroke-width="1" opacity="0.9921568627450981" d="M 226.5 271 L 225.5 273 L 226.5 271 Z " /><path fill="rgb(244,213,155)" stroke="rgb(244,213,155)" stroke-width="1" opacity="0.9921568627450981" d="M 167.5 275 L 168 375.5 L 167 375.5 L 167.5 275 Z " /><path fill="rgb(244,213,155)" stroke="rgb(244,213,155)" stroke-width="1" opacity="0.9921568627450981" d="M 330.5 278 L 331 293.5 L 330 293.5 L 330.5 278 Z " /><path fill="rgb(244,213,155)" stroke="rgb(244,213,155)" stroke-width="1" opacity="0.9921568627450981" d="M 187.5 295 L 207 295.5 L 187.5 296 L 186.5 297 L 187.5 295 Z " /><path fill="rgb(244,213,155)" stroke="rgb(244,213,155)" stroke-width="1" opacity="0.9921568627450981" d="M 291.5 295 L 310 295.5 L 291.5 296 L 291.5 295 Z " /><path fill="rgb(244,213,155)" stroke="rgb(244,213,155)" stroke-width="1" opacity="0.9921568627450981" d="M 330.5 295 L 331 351.5 L 330 351.5 L 330.5 295 Z " /><path fill="rgb(244,213,155)" stroke="rgb(244,213,155)" stroke-width="1" opacity="0.9921568627450981" d="M 241.5 300 L 242.5 302 L 241.5 300 Z " /><path fill="rgb(244,213,155)" stroke="rgb(244,213,155)" stroke-width="1" opacity="0.9921568627450981" d="M 244.5 317 L 247 317.5 L 244.5 318 L 244.5 317 Z " /><path fill="rgb(244,213,155)" stroke="rgb(244,213,155)" stroke-width="1" opacity="0.9921568627450981" d="M 185.5 320 L 187.5 323 L 185.5 320 Z " /><path fill="rgb(244,213,155)" stroke="rgb(244,213,155)" stroke-width="1" opacity="0.9921568627450981" d="M 246.5 322 L 255.5 323 L 259 325.5 Q 258.3 327.8 260.5 327 Q 265.3 329.5 263.5 332 Q 266.5 331.1 265 335.5 L 266 336.5 L 266 376 L 232 376 L 232 336.5 L 235 331.5 L 234 330.5 L 240.5 324 L 246.5 322 Z " /><path fill="rgb(244,213,155)" stroke="rgb(244,213,155)" stroke-width="1" opacity="0.9921568627450981" d="M 227.5 336 L 228 339.5 L 227 339.5 L 227.5 336 Z " /><path fill="rgb(244,213,155)" stroke="rgb(244,213,155)" stroke-width="1" opacity="0.9921568627450981" d="M 330.5 354 L 331 375.5 L 330 375.5 L 330.5 354 Z " /><path fill="rgb(244,213,155)" stroke="rgb(244,213,155)" stroke-width="1" opacity="0.9921568627450981" d="M 185.5 362 L 189 364.5 L 187.5 365 L 185.5 362 Z " /><path fill="rgb(244,213,155)" stroke="rgb(244,213,155)" stroke-width="1" opacity="0.9921568627450981" d="M 208.5 363 L 207.5 365 L 206 364.5 L 208.5 363 Z " /><path fill="rgb(244,213,155)" stroke="rgb(244,213,155)" stroke-width="1" opacity="0.9921568627450981" d="M 289.5 363 L 290.5 365 L 289.5 363 Z " /><path fill="rgb(244,213,155)" stroke="rgb(244,213,155)" stroke-width="1" opacity="0.9921568627450981" d="M 335.5 365 L 336 367.5 L 335 367.5 L 335.5 365 Z " /><path fill="rgb(244,213,155)" stroke="rgb(244,213,155)" stroke-width="1" opacity="0.9921568627450981" d="M 335.5 370 L 336 372.5 L 335 372.5 L 335.5 370 Z " /><path fill="rgb(252,238,205)" stroke="rgb(252,238,205)" stroke-width="1" opacity="1" d="M 347.5 90 L 348 92.5 L 347 92.5 L 347.5 90 Z " /><path fill="rgb(252,238,205)" stroke="rgb(252,238,205)" stroke-width="1" opacity="1" d="M 313.5 94 L 330 94.5 L 329 95.5 L 329 103.5 L 333.5 111 L 335.5 112 L 387.5 112 L 394 106.5 L 394 94 L 411.5 94 L 417 98.5 L 418 101.5 L 418 217.5 L 412.5 225 L 410.5 226 L 314.5 226 L 308 221.5 L 307 219.5 L 307 100.5 L 308 97 Q 311 98 310 95 L 312.5 95 L 313.5 94 Z M 397 120 L 373 137 Q 365 136 362 139 L 358 147 Q 358 155 362 159 L 368 161 L 370 165 L 372 179 L 375 181 L 379 182 L 383 181 L 386 177 L 386 171 L 384 164 L 402 171 Q 408 172 410 168 L 410 152 L 408 142 L 408 131 L 406 123 Q 404 119 397 120 Z M 324 131 L 323 132 L 321 132 L 321 136 L 359 136 L 359 132 L 356 131 L 351 132 L 349 132 L 346 131 L 344 131 L 334 131 L 333 132 L 331 131 L 327 132 L 324 131 Z M 323 151 L 321 153 L 324 156 L 350 156 L 351 155 L 351 151 L 323 151 Z M 323 170 L 321 174 L 323 175 L 358 175 L 359 172 L 358 170 L 323 170 Z M 324 192 L 321 196 L 325 198 L 327 198 L 329 197 L 332 198 L 334 198 L 366 198 L 367 197 Q 371 198 369 194 L 368 192 L 324 192 Z " /><path fill="rgb(252,238,205)" stroke="rgb(252,238,205)" stroke-width="1" opacity="1" d="M 65 142 L 192 142 L 192 221.5 L 187.5 227 L 184.5 229 L 73.5 229 L 67 224.5 L 65 219.5 L 65 142 Z M 87 155 L 85 156 L 82 160 L 82 178 L 84 180 L 85 181 L 106 181 L 108 179 L 108 159 L 104 155 L 87 155 Z M 121 155 L 118 156 L 116 161 L 116 177 L 118 181 L 140 181 Q 139 178 142 179 L 142 159 L 138 155 L 121 155 Z M 155 155 L 151 157 L 150 161 L 150 177 L 151 180 L 154 181 L 169 181 L 170 182 L 173 181 L 175 179 L 175 157 L 172 155 L 155 155 Z M 86 190 L 82 195 L 82 212 L 86 216 L 105 216 L 107 215 L 108 213 L 108 194 L 107 192 L 106 190 L 86 190 Z M 120 190 L 116 195 L 116 212 L 118 215 L 120 216 L 139 216 L 142 213 L 142 194 L 139 190 L 120 190 Z M 154 190 L 150 195 L 150 212 L 151 214 L 154 216 L 173 216 L 175 214 L 175 193 L 173 190 L 154 190 Z " /><path fill="rgb(252,238,205)" stroke="rgb(252,238,205)" stroke-width="1" opacity="1" d="M 247.5 254 L 250.5 254 L 272 271 Q 270.9 273.7 273.5 273 L 276.5 275 L 330 275 L 330 376 L 271 376 L 271 336.5 L 267 325 L 265 325 Q 266.1 322.3 263.5 323 L 253.5 317 L 244.5 317 L 233 323 Q 228.6 327.9 227 336.5 L 227 376 L 168 376 L 168 275 L 221.5 275 L 247.5 254 Z M 246 275 L 241 278 Q 238 277 239 280 L 237 280 Q 238 283 235 285 L 235 294 L 239 300 L 247 303 L 252 303 L 259 300 L 263 293 L 263 285 L 259 278 L 253 275 L 246 275 Z M 188 295 L 184 302 L 185 303 L 185 321 L 188 323 L 207 323 L 209 322 L 210 320 L 210 299 L 207 295 L 188 295 Z M 292 295 L 288 299 L 288 320 L 289 322 L 292 323 L 310 323 L 312 322 L 313 320 L 313 299 L 312 296 L 310 295 L 292 295 Z M 189 337 L 186 338 L 185 341 L 185 363 L 188 365 L 208 365 L 210 362 L 210 341 L 209 338 L 207 337 L 189 337 Z M 293 337 L 288 341 L 288 362 L 291 365 L 310 365 L 312 364 L 313 362 L 313 341 L 309 337 L 307 338 L 305 337 L 300 338 L 298 338 L 293 337 Z " /><path fill="rgb(110,87,68)" stroke="rgb(110,87,68)" stroke-width="1" opacity="0.9647058823529412" d="M 358.5 74 L 369.5 75 L 379 83.5 L 380 89 L 410.5 89 Q 417.1 89.9 420 94.5 L 422 98.5 L 422 220.5 L 416.5 228 L 412.5 230 L 311.5 230 L 305 225.5 L 302 218.5 L 302 100.5 Q 303.5 94 308.5 91 L 313.5 89 L 343 89 Q 344.2 81.9 349.5 78 L 358.5 74 Z M 361 78 L 353 81 Q 347 85 347 93 L 345 94 Q 339 96 338 93 L 334 94 L 334 104 L 335 106 L 337 107 L 388 107 L 390 103 Q 392 97 389 96 L 389 94 L 379 94 Q 375 91 375 86 Q 371 78 361 78 Z M 315 93 L 312 94 L 306 101 L 306 219 L 308 223 L 313 226 L 413 226 L 418 220 L 418 100 L 417 98 L 411 93 L 395 93 L 393 95 L 393 107 L 391 110 L 386 112 L 338 112 L 334 110 L 330 105 L 330 93 L 315 93 Z " /><path fill="rgb(110,87,68)" stroke="rgb(110,87,68)" stroke-width="1" opacity="0.9647058823529412" d="M 96.5 93 L 104 95 L 106 104 L 115.5 104 L 116.5 105 L 117.5 104 L 152 104 Q 150.7 96.5 155.5 94 L 162.5 93 Q 168.8 95.1 167 104 L 177.5 104 L 178.5 105 L 180.5 105 L 186.5 105 L 195 111.5 L 197 117.5 L 197 135.5 L 197 137.5 L 197 215.5 L 196 216.5 L 197 218.5 L 196 223.5 L 191.5 230 L 183.5 234 L 74.5 234 Q 66.9 232.2 63 226.5 L 61 222.5 L 61 114.5 L 65 108 Q 70.5 103.8 81.5 104 L 83.5 104 L 91 104 L 91 97.5 L 96.5 93 Z M 98 97 L 95 100 L 95 114 L 95 116 Q 94 119 97 118 L 99 118 Q 103 119 101 115 L 102 112 L 101 100 L 98 97 Z M 159 97 L 156 101 L 156 117 L 160 119 L 162 118 L 163 117 L 163 100 Q 163 96 159 97 Z M 73 109 L 72 110 L 69 110 Q 70 113 67 112 L 65 116 L 65 137 L 192 137 L 193 136 L 193 118 L 192 115 L 185 109 L 167 109 L 167 119 L 162 123 L 156 122 L 152 118 L 152 110 L 152 109 L 106 109 L 105 119 L 100 123 L 96 122 L 93 122 Q 94 119 91 120 L 90 116 L 90 109 L 73 109 Z M 65 141 L 65 222 L 67 225 Q 66 227 69 226 L 69 228 L 75 230 L 184 230 L 188 228 L 193 221 L 193 141 L 65 141 Z " /><path fill="rgb(110,87,68)" stroke="rgb(110,87,68)" stroke-width="1" opacity="0.9647058823529412" d="M 397.5 120 Q 403.3 119.2 405 122.5 L 407 125.5 L 407 138.5 L 409 147.5 L 410 164.5 L 406.5 170 L 400.5 170 L 384 163 L 385 176.5 L 382.5 180 L 376.5 181 L 373 178.5 L 370 161 L 366.5 161 L 362 157.5 Q 357.9 154.6 359 146.5 L 362 140 L 365.5 138 L 373.5 137 L 397.5 120 Z M 400 124 L 398 126 L 400 152 L 401 153 L 401 163 L 402 166 L 406 165 L 404 140 L 403 139 L 403 128 L 402 126 L 400 124 Z M 393 128 L 380 137 L 378 139 L 378 157 L 382 157 L 397 164 L 398 164 L 397 163 L 397 154 L 395 144 L 395 135 L 394 134 Q 395 127 393 128 Z M 369 141 L 367 142 L 363 147 Q 362 155 368 157 L 374 157 L 374 143 Q 373 140 369 141 Z M 374 161 L 374 168 L 378 177 L 381 176 L 380 164 L 379 163 L 379 161 L 374 161 Z " /><path fill="rgb(110,87,68)" stroke="rgb(110,87,68)" stroke-width="1" opacity="0.9647058823529412" d="M 322 132 L 357.5 132 L 358 136 L 322.5 136 L 321 134.5 L 322 132 Z " /><path fill="rgb(110,87,68)" stroke="rgb(110,87,68)" stroke-width="1" opacity="0.9647058823529412" d="M 323.5 151 L 349.5 151 L 351 152.5 L 349.5 155 L 322.5 155 L 322 152.5 L 323.5 151 Z " /><path fill="rgb(110,87,68)" stroke="rgb(110,87,68)" stroke-width="1" opacity="0.9647058823529412" d="M 85.5 156 L 104.5 156 L 107 158.5 L 108 160.5 L 108 176.5 L 104.5 181 L 86.5 181 L 83 178.5 L 83 158.5 L 85.5 156 Z M 87 160 L 87 177 L 103 177 L 104 176 L 104 162 L 103 160 L 87 160 Z " /><path fill="rgb(110,87,68)" stroke="rgb(110,87,68)" stroke-width="1" opacity="0.9647058823529412" d="M 120.5 156 L 138.5 156 L 141 158.5 L 141 178.5 L 139.5 180 L 137.5 181 L 120.5 181 L 118 180 L 117 177.5 L 117 159.5 L 118 157 L 120.5 156 Z M 121 160 L 121 177 L 137 177 L 137 160 L 121 160 Z " /><path fill="rgb(110,87,68)" stroke="rgb(110,87,68)" stroke-width="1" opacity="0.9647058823529412" d="M 153.5 156 L 171.5 156 L 175 158.5 L 175 177.5 L 171.5 181 L 153.5 181 L 151 178.5 L 151 158.5 L 153.5 156 Z M 155 160 L 155 177 L 171 177 L 171 160 L 155 160 Z " /><path fill="rgb(110,87,68)" stroke="rgb(110,87,68)" stroke-width="1" opacity="0.9647058823529412" d="M 324.5 170 L 325.5 171 L 334.5 171 L 336.5 171 Q 342.8 172.8 344.5 170 Q 346 172.5 351.5 171 L 353.5 171 L 356.5 170 Q 361.5 172.5 356.5 175 L 354.5 174 L 352.5 174 L 344.5 174 L 343.5 175 L 341.5 174 L 339.5 174 Q 334 172.5 332.5 175 L 331.5 174 L 322 174 Q 320.5 170.2 323.5 171 L 324.5 170 Z " /><path fill="rgb(110,87,68)" stroke="rgb(110,87,68)" stroke-width="1" opacity="0.9647058823529412" d="M 169.5 190 L 175 193.5 L 175 212.5 L 172.5 215 L 170.5 216 L 155.5 216 L 151 212.5 L 151 193.5 L 153.5 191 L 168.5 191 L 169.5 190 Z M 155 194 L 155 211 L 157 212 L 170 212 L 171 211 L 171 195 L 158 195 L 155 194 Z " /><path fill="rgb(110,87,68)" stroke="rgb(110,87,68)" stroke-width="1" opacity="0.9647058823529412" d="M 249.5 190 L 254.5 190 L 272.5 198 L 275.5 198 L 280 201.5 L 281 207.5 L 280 210 L 251 221 Q 250 227.4 255.5 229 L 304.5 270 L 331.5 270 L 335 273.5 L 335 377.5 L 334 380 L 331.5 381 L 166.5 381 L 163 378.5 L 163 272.5 L 164.5 271 L 166.5 270 L 193.5 270 L 198 267 Q 196.9 264.3 199.5 265 L 210 257 Q 208.9 254.3 211.5 255 L 247 224.5 L 247 192.5 L 249.5 190 Z M 252 194 L 251 216 L 276 207 L 277 205 L 274 202 L 252 194 Z M 249 229 L 201 269 L 201 270 L 221 270 L 232 261 Q 234 262 233 259 L 248 249 L 255 251 L 278 270 L 298 270 L 249 229 Z M 249 253 L 223 274 L 169 274 L 167 276 L 167 376 L 228 376 L 228 335 L 232 326 Q 236 320 244 318 L 255 318 L 263 322 Q 268 326 270 334 L 270 376 L 331 376 L 331 276 L 330 274 L 276 274 L 256 257 L 249 253 Z M 246 322 L 239 325 Q 233 328 232 336 L 232 376 L 266 376 L 266 336 L 263 329 Q 259 321 246 322 Z " /><path fill="rgb(110,87,68)" stroke="rgb(110,87,68)" stroke-width="1" opacity="0.9647058823529412" d="M 85.5 191 L 105.5 191 L 107 192.5 L 108 194.5 L 108 211.5 L 105.5 215 L 103.5 216 L 86.5 216 L 83 212.5 L 83 193.5 L 85.5 191 Z M 87 194 L 87 212 L 103 212 L 104 211 L 104 196 L 103 194 L 87 194 Z " /><path fill="rgb(110,87,68)" stroke="rgb(110,87,68)" stroke-width="1" opacity="0.9647058823529412" d="M 119.5 191 L 139.5 191 L 141 192.5 L 141 212.5 L 137.5 216 L 121.5 216 L 117 212.5 L 117 194.5 L 119.5 191 Z M 137 194 L 136 195 L 121 195 L 121 211 L 123 212 L 137 212 L 137 194 Z " /><path fill="rgb(110,87,68)" stroke="rgb(110,87,68)" stroke-width="1" opacity="0.9647058823529412" d="M 322 193 L 367.5 193 L 368 197 L 323.5 197 L 322 195.5 L 322 193 Z " /><path fill="rgb(110,87,68)" stroke="rgb(110,87,68)" stroke-width="1" opacity="0.9647058823529412" d="M 247.5 275 Q 256.1 275.4 260 280.5 L 263 288.5 L 261 295.5 L 255.5 301 Q 252 303.5 244.5 302 L 237 295.5 L 235 287.5 L 240.5 278 L 247.5 275 Z M 246 280 L 244 281 L 239 289 L 241 295 L 246 298 Q 253 299 256 296 L 259 289 L 257 284 Q 255 278 246 280 Z " /><path fill="rgb(110,87,68)" stroke="rgb(110,87,68)" stroke-width="1" opacity="0.9647058823529412" d="M 187.5 296 L 207.5 296 L 209 297.5 L 210 299.5 L 210 318.5 L 207.5 322 L 205.5 323 L 188.5 323 L 185 318.5 L 185 299.5 L 187.5 296 Z M 189 300 L 190 303 L 189 308 L 190 313 L 189 318 L 191 319 L 205 319 L 206 316 L 206 306 L 205 305 L 206 303 L 206 301 L 189 300 Z " /><path fill="rgb(110,87,68)" stroke="rgb(110,87,68)" stroke-width="1" opacity="0.9647058823529412" d="M 290 296 L 310.5 296 L 312 297.5 L 313 303.5 L 313 305.5 L 312 309.5 L 313 312.5 L 312 314.5 L 313 317.5 L 310.5 322 L 308.5 323 L 292.5 323 L 289 321 L 288 318.5 L 288 300.5 L 290 296 Z M 293 300 L 293 319 L 308 319 L 308 300 L 293 300 Z " /><path fill="rgb(110,87,68)" stroke="rgb(110,87,68)" stroke-width="1" opacity="0.9647058823529412" d="M 187.5 338 L 206.5 338 L 209 339 L 210 341.5 L 210 360.5 L 207.5 364 L 187.5 364 L 185 361.5 L 185 341.5 L 187.5 338 Z M 189 342 L 189 355 L 190 356 L 189 358 L 190 360 L 200 360 L 202 360 L 204 361 L 206 360 L 206 358 L 205 356 L 206 354 L 205 350 L 206 347 Q 206 342 206 342 L 189 342 Z " /><path fill="rgb(110,87,68)" stroke="rgb(110,87,68)" stroke-width="1" opacity="0.9647058823529412" d="M 291.5 338 L 309.5 338 L 312 339 L 313 342.5 L 313 358.5 L 310.5 364 L 306.5 365 L 303.5 364 L 299.5 365 L 298.5 364 L 290.5 364 L 289 362.5 L 288 360.5 L 288 342.5 L 291.5 338 Z M 293 342 L 293 361 L 296 361 L 307 361 L 308 360 L 308 342 L 293 342 Z " /><path fill="rgb(154,181,204)" stroke="rgb(154,181,204)" stroke-width="1" opacity="0.9019607843137255" d="M 360.5 73 L 364 73.5 L 360.5 74 L 360.5 73 Z " /><path fill="rgb(154,181,204)" stroke="rgb(154,181,204)" stroke-width="1" opacity="0.9019607843137255" d="M 373.5 77 L 376.5 81 L 373.5 77 Z " /><path fill="rgb(154,181,204)" stroke="rgb(154,181,204)" stroke-width="1" opacity="0.9019607843137255" d="M 164.5 94 L 165.5 96 L 164.5 94 Z " /><path fill="rgb(154,181,204)" stroke="rgb(154,181,204)" stroke-width="1" opacity="0.9019607843137255" d="M 167.5 99 L 168 103.5 L 167 103.5 L 167.5 99 Z " /><path fill="rgb(154,181,204)" stroke="rgb(154,181,204)" stroke-width="1" opacity="0.9019607843137255" d="M 151.5 100 L 152 103.5 L 151 103.5 L 151.5 100 Z " /><path fill="rgb(154,181,204)" stroke="rgb(154,181,204)" stroke-width="1" opacity="0.9019607843137255" d="M 67.5 106 L 66.5 108 L 67.5 106 Z " /><path fill="rgb(154,181,204)" stroke="rgb(154,181,204)" stroke-width="1" opacity="0.9019607843137255" d="M 192.5 108 L 194.5 111 L 192.5 108 Z " /><path fill="rgb(154,181,204)" stroke="rgb(154,181,204)" stroke-width="1" opacity="0.9019607843137255" d="M 422.5 112 L 423 118.5 L 422 118.5 L 422.5 112 Z " /><path fill="rgb(154,181,204)" stroke="rgb(154,181,204)" stroke-width="1" opacity="0.9019607843137255" d="M 60.5 118 L 61 219.5 L 60 219.5 L 60.5 118 Z " /><path fill="rgb(154,181,204)" stroke="rgb(154,181,204)" stroke-width="1" opacity="0.9019607843137255" d="M 422.5 120 L 423 125.5 L 422 125.5 L 422.5 120 Z " /><path fill="rgb(154,181,204)" stroke="rgb(154,181,204)" stroke-width="1" opacity="0.9019607843137255" d="M 422.5 128 L 423 183.5 L 422 183.5 L 422.5 128 Z " /><path fill="rgb(154,181,204)" stroke="rgb(154,181,204)" stroke-width="1" opacity="0.9019607843137255" d="M 121 160 L 137 160 L 137 177 L 122.5 177 L 121 175.5 L 121 160 Z " /><path fill="rgb(154,181,204)" stroke="rgb(154,181,204)" stroke-width="1" opacity="0.9019607843137255" d="M 155 160 L 171 160 L 171 175.5 L 169.5 177 L 156.5 177 L 155 175.5 L 155 160 Z " /><path fill="rgb(154,181,204)" stroke="rgb(154,181,204)" stroke-width="1" opacity="0.9019607843137255" d="M 422.5 185 L 423 188.5 L 422 188.5 L 422.5 185 Z " /><path fill="rgb(154,181,204)" stroke="rgb(154,181,204)" stroke-width="1" opacity="0.9019607843137255" d="M 248.5 190 L 247.5 192 L 248.5 190 Z " /><path fill="rgb(154,181,204)" stroke="rgb(154,181,204)" stroke-width="1" opacity="0.9019607843137255" d="M 121 195 L 137 195 L 137 210.5 L 135.5 212 L 123.5 212 L 121 211 L 121 195 Z " /><path fill="rgb(154,181,204)" stroke="rgb(154,181,204)" stroke-width="1" opacity="0.9019607843137255" d="M 155 195 L 171 195 L 171 210.5 L 169.5 212 L 157.5 212 L 155 211 L 155 195 Z " /><path fill="rgb(154,181,204)" stroke="rgb(154,181,204)" stroke-width="1" opacity="0.9019607843137255" d="M 252.5 225 L 253.5 227 L 252.5 225 Z " /><path fill="rgb(154,181,204)" stroke="rgb(154,181,204)" stroke-width="1" opacity="0.9019607843137255" d="M 249.5 229 L 279.5 255 L 286 259 Q 284.9 261.7 287.5 261 L 297 269.5 L 277.5 270 L 275 269 Q 276.1 266.3 273.5 267 L 263 259 Q 264.1 256.3 261.5 257 Q 257.1 250.4 247.5 249 L 220.5 270 L 201.5 270 L 204.5 266 L 212 261 Q 210.9 258.3 213.5 259 L 224 251 Q 222.9 248.3 225.5 249 L 249.5 229 Z " /><path fill="rgb(154,181,204)" stroke="rgb(154,181,204)" stroke-width="1" opacity="0.9019607843137255" d="M 259.5 231 L 260.5 233 L 259.5 231 Z " /><path fill="rgb(154,181,204)" stroke="rgb(154,181,204)" stroke-width="1" opacity="0.9019607843137255" d="M 277.5 246 L 278.5 248 L 277.5 246 Z " /><path fill="rgb(154,181,204)" stroke="rgb(154,181,204)" stroke-width="1" opacity="0.9019607843137255" d="M 219.5 247 L 217.5 250 L 219.5 247 Z " /><path fill="rgb(154,181,204)" stroke="rgb(154,181,204)" stroke-width="1" opacity="0.9019607843137255" d="M 289.5 256 L 292.5 260 L 289.5 256 Z " /><path fill="rgb(154,181,204)" stroke="rgb(154,181,204)" stroke-width="1" opacity="0.9019607843137255" d="M 206.5 258 L 204.5 261 L 206.5 258 Z " /><path fill="rgb(154,181,204)" stroke="rgb(154,181,204)" stroke-width="1" opacity="0.9019607843137255" d="M 194.5 268 L 193.5 270 L 194.5 268 Z " /><path fill="rgb(154,181,204)" stroke="rgb(154,181,204)" stroke-width="1" opacity="0.9019607843137255" d="M 332.5 270 L 333.5 272 L 332.5 270 Z " /><path fill="rgb(154,181,204)" stroke="rgb(154,181,204)" stroke-width="1" opacity="0.9019607843137255" d="M 245.5 280 L 252.5 280 L 256 282 L 258 285.5 L 258 291.5 L 256 296 Q 253.1 298.9 245.5 298 L 242 296 L 240 292.5 L 240 285.5 L 242 282 L 245.5 280 Z " /><path fill="rgb(154,181,204)" stroke="rgb(154,181,204)" stroke-width="1" opacity="0.9019607843137255" d="M 335.5 297 L 336 299.5 L 335 299.5 L 335.5 297 Z " /><path fill="rgb(154,181,204)" stroke="rgb(154,181,204)" stroke-width="1" opacity="0.9019607843137255" d="M 190 300 L 205 300 L 205 314.5 L 205 316.5 Q 206.3 320.7 201.5 319 L 199.5 319 L 190 319 L 190 300 Z " /><path fill="rgb(154,181,204)" stroke="rgb(154,181,204)" stroke-width="1" opacity="0.9019607843137255" d="M 293 300 L 308 300 L 308 317.5 L 306.5 319 L 293 319 L 293 300 Z " /><path fill="rgb(154,181,204)" stroke="rgb(154,181,204)" stroke-width="1" opacity="0.9019607843137255" d="M 335.5 303 L 336 308.5 L 335 308.5 L 335.5 303 Z " /><path fill="rgb(154,181,204)" stroke="rgb(154,181,204)" stroke-width="1" opacity="0.9019607843137255" d="M 335.5 312 L 336 314.5 L 335 314.5 L 335.5 312 Z " /><path fill="rgb(154,181,204)" stroke="rgb(154,181,204)" stroke-width="1" opacity="0.9019607843137255" d="M 335.5 317 L 336 329.5 L 335 329.5 L 335.5 317 Z " /><path fill="rgb(154,181,204)" stroke="rgb(154,181,204)" stroke-width="1" opacity="0.9019607843137255" d="M 335.5 331 L 336 333.5 L 335 333.5 L 335.5 331 Z " /><path fill="rgb(154,181,204)" stroke="rgb(154,181,204)" stroke-width="1" opacity="0.9019607843137255" d="M 335.5 335 L 336 337.5 L 335 337.5 L 335.5 335 Z " /><path fill="rgb(154,181,204)" stroke="rgb(154,181,204)" stroke-width="1" opacity="0.9019607843137255" d="M 335.5 339 L 336 342.5 L 335 342.5 L 335.5 339 Z " /><path fill="rgb(154,181,204)" stroke="rgb(154,181,204)" stroke-width="1" opacity="0.9019607843137255" d="M 190 342 L 204.5 342 L 206 343.5 L 205 350.5 L 205 352.5 L 205 360 L 190 360 L 190 342 Z " /><path fill="rgb(154,181,204)" stroke="rgb(154,181,204)" stroke-width="1" opacity="0.9019607843137255" d="M 293 342 L 308 342 L 308 360 L 293 360 L 293 342 Z " /></svg>